<?xml version="1.0" encoding="utf-8"?>
<!-- Generator: Adobe Illustrator 24.0.1, SVG Export Plug-In . SVG Version: 6.00 Build 0)  -->
<svg version="1.1" id="Layer_1" xmlns="http://www.w3.org/2000/svg" xmlns:xlink="http://www.w3.org/1999/xlink" x="0px" y="0px"
	 viewBox="0 0 21 21" style="enable-background:new 0 0 21 21;" xml:space="preserve">
<style type="text/css">
	.st0{fill-rule:evenodd;clip-rule:evenodd;fill:#222222;}
</style>
<path class="st0" d="M20,4L20,4c0.6,0,1,0.4,1,1v16h-2V5C19,4.4,19.4,4,20,4z M14,7L14,7c0.6,0,1,0.4,1,1v13h-2V8
	C13,7.4,13.4,7,14,7z M8,1c0.6,0,1,0.4,1,1v19H7V2C7,1.4,7.4,1,8,1z M2,9L2,9c0.6,0,1,0.4,1,1v11H1V10C1,9.4,1.4,9,2,9z"/>
</svg>
