<?xml version="1.0" encoding="utf-8"?>
<!-- Generator: Adobe Illustrator 25.2.0, SVG Export Plug-In . SVG Version: 6.00 Build 0)  -->
<svg version="1.1" id="Layer_1" xmlns="http://www.w3.org/2000/svg" xmlns:xlink="http://www.w3.org/1999/xlink" x="0px" y="0px"
	 viewBox="0 0 447.4 512" style="enable-background:new 0 0 447.4 512;" xml:space="preserve">
<g>
	<path d="M295.5,312.2l80.3-46.4c7.2-4.1,9.6-13.3,5.5-20.5c-4.1-7.2-13.3-9.6-20.5-5.5l-80.3,46.4c-7.2,4.1-9.6,13.3-5.5,20.5
		C278.5,312.8,287.2,317,295.5,312.2L295.5,312.2z"/>
	<path d="M439.9,122.5L231.2,2c-4.6-2.7-10.4-2.7-15,0L7.5,122.5c-4.6,2.7-7.5,7.6-7.5,13v241c0,5.4,2.9,10.3,7.5,13L216.2,510
		c2.3,1.3,4.9,2,7.5,2s5.2-0.7,7.5-2l208.7-120.5c4.6-2.7,7.5-7.6,7.5-13v-241C447.4,130.1,444.6,125.2,439.9,122.5z M332.9,95.4
		L154.2,198.6l-39.6-22.8L293.4,72.5L332.9,95.4z M139.2,224.5v45.6l-39.6-22.9l0-45.5L139.2,224.5z M223.7,32.3l39.6,22.9
		L84.6,158.4L45,135.5L223.7,32.3z M208.7,471L30,367.8V161.5l39.6,22.9l-0.1,71.5c0,5.4,2.9,10.3,7.5,13l69.6,40.2
		c7.8,4.5,14.9,0.1,15,0c4.6-2.7,7.5-7.6,7.5-13v-54.2l39.5,22.8V471z M223.7,238.7l-39.5-22.8l178.7-103.2l39.5,22.8L223.7,238.7z
		 M417.4,367.8L238.7,471V264.7l178.7-103.2V367.8z"/>
	<path d="M360.8,320.2l-80.3,46.4c-7.2,4.1-9.6,13.3-5.5,20.5c3.5,6.1,12.3,10.2,20.5,5.5l80.3-46.4c7.2-4.1,9.6-13.3,5.5-20.5
		C377.2,318.5,368,316.1,360.8,320.2L360.8,320.2z"/>
</g>
</svg>
