<?xml version="1.0"?>
<svg xmlns="http://www.w3.org/2000/svg" id="Outline" viewBox="0 0 512 512" width="512" height="512"><path d="M392,408V128a8,8,0,0,0-9.431-7.871c-.2.036-20.432,3.56-48.27-4.792-47.179-14.153-77.966-51.061-95.486-79.529a8,8,0,0,0-10.391-2.963l-96,48a8,8,0,0,0-3.733,10.4C129,91.953,160,162.5,160,224c0,56.053-32.275,63.867-33.569,64.155a8,8,0,0,0-6.253,9.521l24,112A8,8,0,0,0,152,416H384A8,8,0,0,0,392,408ZM328,288h-8a8,8,0,0,0,0,16h8v96H158.467L137.29,301.171a56.487,56.487,0,0,0,16.367-11.514C172.124,271.19,176,243.76,176,224c0-53.938-21.624-112.251-29.721-132.195l82.837-41.418C262,100.661,300.482,121.519,328,130.135Zm48,112H344V134.205a136.747,136.747,0,0,0,32,2.571Z"/><path d="M208,184H192a8,8,0,0,0,0,16h16a8,8,0,0,0,0-16Z"/><path d="M192,288H176a8,8,0,0,0,0,16h16a8,8,0,0,0,0-16Z"/><path d="M240,288H224a8,8,0,0,0,0,16h16a8,8,0,0,0,0-16Z"/><path d="M272,304h16a8,8,0,0,0,0-16H272a8,8,0,0,0,0,16Z"/><path d="M240,184a8,8,0,0,0,0,16h16a8,8,0,0,0,0-16Z"/><path d="M288,200h16a8,8,0,0,0,0-16H288a8,8,0,0,0,0,16Z"/><path d="M64,400a8,8,0,0,0,0,16H96a8,8,0,0,0,0-16H88V304h8a8,8,0,0,0,0-16H64a8,8,0,0,0,0,16h8v96Z"/><path d="M328,48a8,8,0,0,0-8,8V88a8,8,0,0,0,16,0V80h32v8a8,8,0,0,0,16,0V56a8,8,0,0,0-16,0v8H336V56A8,8,0,0,0,328,48Z"/><path d="M376,480a8,8,0,0,0,8-8V440a8,8,0,0,0-16,0v8H160v-8a8,8,0,0,0-16,0v32a8,8,0,0,0,16,0v-8H368v8A8,8,0,0,0,376,480Z"/><path d="M448,136a8,8,0,0,0,0-16H416a8,8,0,0,0,0,16h8V400h-8a8,8,0,0,0,0,16h32a8,8,0,0,0,0-16h-8V136Z"/></svg>
