<?xml version="1.0" encoding="utf-8"?>
<!-- Generator: Adobe Illustrator 22.0.1, SVG Export Plug-In . SVG Version: 6.00 Build 0)  -->
<svg version="1.1" id="display.svg" xmlns="http://www.w3.org/2000/svg" xmlns:xlink="http://www.w3.org/1999/xlink" x="0px"
	 y="0px" viewBox="0 0 13 13" style="enable-background:new 0 0 13 13;" xml:space="preserve">
<style type="text/css">
	.st0{fill:#222222;}
</style>
<path id="block_black" class="st0" d="M0.8,5h1.5C2.7,5,3,5.3,3,5.8v1.5C3,7.7,2.7,8,2.3,8H0.8C0.3,8,0,7.7,0,7.3V5.8
	C0,5.3,0.3,5,0.8,5z M0.8,10h1.5C2.7,10,3,10.3,3,10.8l0,0v1.5C3,12.7,2.7,13,2.3,13H0.8C0.3,13,0,12.7,0,12.3v-1.5
	C0,10.3,0.3,10,0.8,10L0.8,10z M0.8,0h1.5C2.7,0,3,0.3,3,0.8v1.5C3,2.7,2.7,3,2.3,3H0.8C0.3,3,0,2.7,0,2.3V0.8C0,0.3,0.3,0,0.8,0z
	 M5.8,5h1.5C7.7,5,8,5.3,8,5.8v1.5C8,7.7,7.7,8,7.3,8H5.8C5.3,8,5,7.7,5,7.3V5.8C5,5.3,5.3,5,5.8,5z M5.8,10h1.5
	C7.7,10,8,10.3,8,10.8l0,0v1.5C8,12.7,7.7,13,7.3,13H5.8C5.3,13,5,12.7,5,12.3v-1.5C5,10.3,5.3,10,5.8,10L5.8,10z M5.8,0h1.5
	C7.7,0,8,0.3,8,0.8v1.5C8,2.7,7.7,3,7.3,3H5.8C5.3,3,5,2.7,5,2.3V0.8C5,0.3,5.3,0,5.8,0z M10.8,5h1.5C12.7,5,13,5.3,13,5.8v1.5
	C13,7.7,12.7,8,12.3,8h-1.5C10.3,8,10,7.7,10,7.3V5.8C10,5.3,10.3,5,10.8,5z M10.8,10h1.5c0.4,0,0.8,0.3,0.8,0.8l0,0v1.5
	c0,0.4-0.3,0.8-0.8,0.8h-1.5c-0.4,0-0.8-0.3-0.8-0.8v-1.5C10,10.3,10.3,10,10.8,10L10.8,10z M10.8,0h1.5C12.7,0,13,0.3,13,0.8v1.5
	C13,2.7,12.7,3,12.3,3h-1.5C10.3,3,10,2.7,10,2.3V0.8C10,0.3,10.3,0,10.8,0z"/>
</svg>
