<?xml version="1.0" encoding="utf-8"?>
<!-- Generator: Adobe Illustrator 22.0.1, SVG Export Plug-In . SVG Version: 6.00 Build 0)  -->
<svg version="1.1" id="display.svg" xmlns="http://www.w3.org/2000/svg" xmlns:xlink="http://www.w3.org/1999/xlink" x="0px"
	 y="0px" viewBox="0 0 13 13" style="enable-background:new 0 0 13 13;" xml:space="preserve">
<style type="text/css">
	.st0{fill:#222222;}
</style>
<g>
	<path id="list_black" class="st0" d="M0.5,5h2C2.8,5,3,5.2,3,5.5v2C3,7.8,2.8,8,2.5,8h-2C0.2,8,0,7.8,0,7.5v-2C0,5.2,0.2,5,0.5,5z
		 M0.5,10h2C2.8,10,3,10.2,3,10.5v2C3,12.8,2.8,13,2.5,13h-2C0.2,13,0,12.8,0,12.5v-2C0,10.2,0.2,10,0.5,10z M0.5,0h2
		C2.8,0,3,0.2,3,0.5v2C3,2.8,2.8,3,2.5,3h-2C0.2,3,0,2.8,0,2.5v-2C0,0.2,0.2,0,0.5,0z M5.5,5h7C12.8,5,13,5.2,13,5.5v2
		C13,7.8,12.8,8,12.5,8h-7C5.2,8,5,7.8,5,7.5v-2C5,5.2,5.2,5,5.5,5z M5.5,10h7c0.3,0,0.5,0.2,0.5,0.5v2c0,0.3-0.2,0.5-0.5,0.5h-7
		C5.2,13,5,12.8,5,12.5v-2C5,10.2,5.2,10,5.5,10z M5.5,0h7C12.8,0,13,0.2,13,0.5v2C13,2.8,12.8,3,12.5,3h-7C5.2,3,5,2.8,5,2.5v-2
		C5,0.2,5.2,0,5.5,0z"/>
</g>
</svg>
