<?xml version="1.0" encoding="utf-8"?>
<!-- Generator: Adobe Illustrator 25.2.0, SVG Export Plug-In . SVG Version: 6.00 Build 0)  -->
<svg version="1.1" id="Bold" xmlns="http://www.w3.org/2000/svg" xmlns:xlink="http://www.w3.org/1999/xlink" x="0px" y="0px"
	 viewBox="0 0 320 512" style="enable-background:new 0 0 320 512;" xml:space="preserve">
<g>
	<path d="M315.3,274.8c-7.8-14.6-28.8-26.8-56.7-5.7c0,0-37.7,28.9-98.6,28.9c-60.9,0-98.6-28.9-98.6-28.9
		c-27.9-21.2-49-8.9-56.7,5.7h0c-13.1,25.7,1.8,38,35.6,59c28.8,17.8,68.6,24.3,94.1,26.9c-0.4,0.3-13.3,12.8-100.7,96.9
		C4.5,485.7,51.7,530.7,81,503.2l79.3-76.5c30.4,29.2,59.5,57.2,79.3,76.6c29.3,27.6,76.5-17.1,47.5-45.7c-2-1.9-95.3-91.4-101-96.9
		c25.9-2.6,65.1-9.5,93.5-26.9l0,0C313.4,312.8,328.2,300.5,315.3,274.8z M134.5,360.7C134.5,360.7,134.5,360.7,134.5,360.7
		C130.8,364.2,134.3,360.9,134.5,360.7z"/>
	<path d="M160,259c74.2,0,134.8-58,134.8-129.4C294.8,58,234.2,0,160,0C85.8,0,25.2,58,25.2,129.7C25.2,201,85.8,259,160,259z
		 M160,65.7c36.5,0,66.2,28.6,66.2,64c0,35.1-29.7,63.7-66.2,63.7c-36.5,0-66.2-28.6-66.2-63.7C93.8,94.3,123.5,65.7,160,65.7z"/>
</g>
</svg>
