<?xml version="1.0" encoding="utf-8"?>
<!-- Generator: Adobe Illustrator 25.2.0, SVG Export Plug-In . SVG Version: 6.00 Build 0)  -->
<svg version="1.1" id="Layer_1" xmlns="http://www.w3.org/2000/svg" xmlns:xlink="http://www.w3.org/1999/xlink" x="0px" y="0px"
	 viewBox="0 0 17 17" style="enable-background:new 0 0 17 17;" xml:space="preserve">
<style type="text/css">
	.st0{fill-rule:evenodd;clip-rule:evenodd;fill:#222222;}
</style>
<path class="st0" d="M16.7,15.3l-3.3-3.3c1-1.3,1.6-2.8,1.6-4.6C15,3.4,11.6,0,7.5,0S0,3.4,0,7.5C0,11.6,3.4,15,7.5,15
	c1.7,0,3.3-0.6,4.6-1.6l3.3,3.3c0,0,0,0,0.1,0.1c0.4,0.4,1,0.3,1.4-0.1C17.1,16.3,17.1,15.7,16.7,15.3z M7.5,13C4.5,13,2,10.5,2,7.5
	C2,4.5,4.5,2,7.5,2S13,4.5,13,7.5C13,10.5,10.5,13,7.5,13z"/>
</svg>
