<?xml version="1.0" encoding="utf-8"?>
<!-- Generator: Adobe Illustrator 25.2.0, SVG Export Plug-In . SVG Version: 6.00 Build 0)  -->
<svg version="1.1" id="Layer_1" xmlns="http://www.w3.org/2000/svg" xmlns:xlink="http://www.w3.org/1999/xlink" x="0px" y="0px"
	 viewBox="0 0 23 20" style="enable-background:new 0 0 23 20;" xml:space="preserve">
<style type="text/css">
	.st0{fill-rule:evenodd;clip-rule:evenodd;fill:#222222;}
</style>
<path class="st0" d="M21,10.7L11.7,20h-0.4L2,10.8c-2.5-2.3-2.7-6.2-0.5-8.7c1.2-1.3,2.8-2,4.6-2c2.3,0,4.3,1.3,5.4,3.3
	c1.6-3,5.2-4.1,8.2-2.6c2,1.1,3.3,3.2,3.3,5.5C23,7.9,22.3,9.5,21,10.7z M19.8,9.2L19.8,9.2l-8.2,8.2h-0.3l-8.1-8l0,0
	c-1.7-1.7-1.7-4.4,0-6C4.1,2.5,5.1,2,6.2,2c1.3,0,2.6,0.6,3.4,1.7l0,0l0.1,0.1C9.8,3.9,9.8,4,9.9,4.1l1.7,2.7l1.5-2.5
	c0.1-0.2,0.2-0.4,0.4-0.7l0-0.1l0,0c0.8-1,2-1.7,3.3-1.7C19.2,2,21,3.9,21,6.3C21,7.4,20.6,8.4,19.8,9.2z"/>
</svg>
