<?xml version="1.0" encoding="utf-8"?>
<!-- Generator: Adobe Illustrator 25.2.0, SVG Export Plug-In . SVG Version: 6.00 Build 0)  -->
<svg version="1.1" id="Layer_1" xmlns="http://www.w3.org/2000/svg" xmlns:xlink="http://www.w3.org/1999/xlink" x="0px" y="0px"
	 viewBox="0 0 28.4 29.6" style="enable-background:new 0 0 28.4 29.6;" xml:space="preserve">
<style type="text/css">
	.st0{fill-rule:evenodd;clip-rule:evenodd;}
</style>
<path class="st0" d="M21.9,19.9c-0.9-1-2.1-1-3.1,0c-0.7,0.7-1.3,1-2,1.7c-0.2,0.2-0.4,0.2-0.6,0.1c-0.5-0.3-1-0.5-1.4-0.8
	c-2.1-1.4-3.8-3.1-5.4-5.1c-0.8-1-1.4-2-1.9-3.2c-0.1-0.2-0.1-0.4,0.1-0.6c0.7-0.7,1-1,1.7-1.7c1-1,1-2.2,0-3.3
	c-0.6-0.6-1.1-1.4-1.6-2c-0.5-0.6-0.8-1.4-1.4-2c-0.9-1-2.1-1-3.1,0C2.6,3.9,1.9,4.7,1.1,5.4C0.4,6,0.1,6.9,0,7.8
	c-0.1,1.6,0.3,3,0.8,4.5c1.1,3,2.7,5.6,4.6,8c2.6,3.3,5.8,5.8,9.5,7.7c1.7,0.8,3.4,1.5,5.3,1.6c1.3,0.1,2.4-0.3,3.3-1.3
	c0.6-0.7,1.3-1.4,2-2c1-1,1-2.2,0-3.2C24.4,21.8,23,21.1,21.9,19.9z M21.4,14.5l0.3,0c0.6-0.1,1-0.7,0.8-1.3
	c-0.5-1.7-1.3-3.2-2.5-4.4c-1.3-1.3-2.9-2.3-4.6-2.7c-0.6-0.2-1.1,0.2-1.2,0.9l0,0.3c-0.1,0.5,0.3,1,0.7,1.1
	c1.3,0.4,2.5,1.1,3.5,2.1c0.9,1,1.6,2.1,2,3.4C20.4,14.3,20.9,14.6,21.4,14.5z M23.9,4.7c-2.3-2.4-5.2-4-8.4-4.7
	c-0.6-0.1-1.1,0.3-1.2,0.9l0,0.3c-0.1,0.5,0.3,1,0.8,1.2c2.7,0.6,5.2,2,7.2,4c1.9,1.9,3.2,4.4,3.8,7c0.1,0.5,0.6,0.9,1.1,0.8l0.3,0
	c0.6-0.1,0.9-0.7,0.8-1.3C27.6,9.8,26.1,7,23.9,4.7z"/>
</svg>
