<?xml version="1.0" encoding="utf-8"?>
<!-- Generator: Adobe Illustrator 25.2.0, SVG Export Plug-In . SVG Version: 6.00 Build 0)  -->
<svg version="1.1" id="Layer_1" xmlns="http://www.w3.org/2000/svg" xmlns:xlink="http://www.w3.org/1999/xlink" x="0px" y="0px"
	 viewBox="0 0 20 20" style="enable-background:new 0 0 20 20;" xml:space="preserve">
<style type="text/css">
	.st0{fill-rule:evenodd;clip-rule:evenodd;fill:#222222;}
</style>
<path class="st0" d="M19,3L19,3c0.6,0,1,0.4,1,1v16h-2V4C18,3.4,18.4,3,19,3z M13,6L13,6c0.6,0,1,0.4,1,1v13h-2V7
	C12,6.4,12.4,6,13,6z M7,0c0.6,0,1,0.4,1,1v19H6V1C6,0.4,6.4,0,7,0z M1,8L1,8c0.6,0,1,0.4,1,1v11H0V9C0,8.4,0.4,8,1,8z"/>
</svg>
