<?xml version="1.0" encoding="utf-8"?>
<!-- Generator: Adobe Illustrator 25.2.0, SVG Export Plug-In . SVG Version: 6.00 Build 0)  -->
<svg version="1.1" id="Capa_1" xmlns="http://www.w3.org/2000/svg" xmlns:xlink="http://www.w3.org/1999/xlink" x="0px" y="0px"
	 viewBox="0 0 51 53" style="enable-background:new 0 0 51 53;" xml:space="preserve">
<g>
	<path d="M28,20h-6v-6c0-0.6-0.4-1-1-1s-1,0.4-1,1v6h-6c-0.6,0-1,0.4-1,1s0.4,1,1,1h6v6c0,0.6,0.4,1,1,1s1-0.4,1-1v-6h6
		c0.6,0,1-0.4,1-1S28.6,20,28,20z"/>
	<path d="M50.7,51.3L35.9,35.8C39.7,32,42,26.8,42,21C42,9.4,32.6,0,21,0S0,9.4,0,21s9.4,21,21,21c5.1,0,9.7-1.8,13.4-4.8l14.9,15.5
		c0.2,0.2,0.5,0.3,0.7,0.3c0.2,0,0.5-0.1,0.7-0.3C51.1,52.3,51.1,51.7,50.7,51.3z M2,21C2,10.5,10.5,2,21,2s19,8.5,19,19
		s-8.5,19-19,19S2,31.5,2,21z"/>
</g>
</svg>
